<svg id="Layer_1" data-name="Layer 1" xmlns="http://www.w3.org/2000/svg" xmlns:xlink="http://www.w3.org/1999/xlink" viewBox="0 0 1200.03 335.95"><defs><style>.cls-1{fill:red;}.cls-11,.cls-13,.cls-17,.cls-2,.cls-22,.cls-23,.cls-24,.cls-3,.cls-4,.cls-5,.cls-7{fill:none;}.cls-13,.cls-2,.cls-20,.cls-21,.cls-22,.cls-23,.cls-24,.cls-25,.cls-3,.cls-5,.cls-7{stroke:#000;}.cls-10,.cls-11,.cls-12,.cls-13,.cls-15,.cls-16,.cls-17,.cls-19,.cls-2,.cls-20,.cls-21,.cls-22,.cls-23,.cls-24,.cls-25,.cls-3,.cls-4,.cls-5,.cls-7,.cls-8,.cls-9{stroke-miterlimit:10;}.cls-2{stroke-width:5.55px;}.cls-3{stroke-width:1.83px;}.cls-15,.cls-19,.cls-4{stroke:red;}.cls-4{stroke-width:2.64px;}.cls-5{stroke-width:0.73px;}.cls-6{fill:url(#radial-gradient);}.cls-7,.cls-8{stroke-width:1.32px;}.cls-12,.cls-15,.cls-19,.cls-8{fill:#fff;}.cls-8{stroke:blue;}.cls-11,.cls-9{stroke-width:0.33px;}.cls-9{fill:url(#radial-gradient-2);stroke:url(#New_Gradient_Swatch_1);}.cls-10{fill:blue;stroke-width:0.37px;stroke:url(#New_Gradient_Swatch_1-2);}.cls-11{stroke:url(#New_Gradient_Swatch_1-3);}.cls-12{stroke-width:0.31px;stroke:url(#New_Gradient_Swatch_1-4);}.cls-13{stroke-width:2.2px;}.cls-14{fill:url(#radial-gradient-3);}.cls-15{stroke-width:1.35px;}.cls-16,.cls-17{stroke-width:0.34px;}.cls-16{fill:url(#radial-gradient-4);stroke:url(#New_Gradient_Swatch_1-5);}.cls-17{stroke:url(#New_Gradient_Swatch_1-6);}.cls-18{fill:url(#radial-gradient-5);}.cls-19{stroke-width:0.83px;}.cls-20{stroke-width:0.32px;}.cls-21{stroke-width:0.21px;fill:url(#radial-gradient-6);}.cls-22,.cls-25{stroke-width:1.22px;}.cls-23{stroke-width:0.94px;}.cls-24{stroke-width:1.22px;}</style><radialGradient id="radial-gradient" cx="277.45" cy="117.67" r="22.59" gradientUnits="userSpaceOnUse"><stop offset="0.35" stop-color="blue"/><stop offset="0.7" stop-color="#6a84ff"/><stop offset="1" stop-color="#fff"/><stop offset="1" stop-color="#ffd8d8"/></radialGradient><radialGradient id="radial-gradient-2" cx="277.45" cy="117.67" r="9" gradientUnits="userSpaceOnUse"><stop offset="0" stop-color="#ff0"/><stop offset="0.78" stop-color="#fffff1"/><stop offset="1" stop-color="#fff"/></radialGradient><linearGradient id="New_Gradient_Swatch_1" x1="268.28" y1="117.67" x2="286.62" y2="117.67" gradientUnits="userSpaceOnUse"><stop offset="0" stop-color="#1525ed"/><stop offset="0.17" stop-color="red"/><stop offset="0.29" stop-color="#ff0"/><stop offset="0.37" stop-color="#ff0"/><stop offset="0.4" stop-color="#0415ff"/><stop offset="0.57" stop-color="red"/><stop offset="0.76" stop-color="red"/><stop offset="0.97" stop-color="#ff0"/></linearGradient><linearGradient id="New_Gradient_Swatch_1-2" x1="193.75" y1="82.81" x2="206.09" y2="82.81" xlink:href="#New_Gradient_Swatch_1"/><linearGradient id="New_Gradient_Swatch_1-3" x1="269.85" y1="117.67" x2="285.05" y2="117.67" xlink:href="#New_Gradient_Swatch_1"/><linearGradient id="New_Gradient_Swatch_1-4" x1="195.77" y1="82.81" x2="204.07" y2="82.81" xlink:href="#New_Gradient_Swatch_1"/><radialGradient id="radial-gradient-3" cx="143.63" cy="183.16" r="23.11" gradientUnits="userSpaceOnUse"><stop offset="0.35" stop-color="red"/><stop offset="0.42" stop-color="#ff1a1a"/><stop offset="0.65" stop-color="#f33"/><stop offset="1" stop-color="#fff"/><stop offset="1" stop-color="#ffd8d8"/></radialGradient><radialGradient id="radial-gradient-4" cx="143.63" cy="183.16" r="9.21" gradientUnits="userSpaceOnUse"><stop offset="0" stop-color="aqua"/><stop offset="0.78" stop-color="#fffff1"/><stop offset="1" stop-color="#fff"/></radialGradient><linearGradient id="New_Gradient_Swatch_1-5" x1="134.25" y1="183.16" x2="153.01" y2="183.16" xlink:href="#New_Gradient_Swatch_1"/><linearGradient id="New_Gradient_Swatch_1-6" x1="135.85" y1="183.16" x2="151.4" y2="183.16" xlink:href="#New_Gradient_Swatch_1"/><radialGradient id="radial-gradient-5" cx="284.71" cy="192.81" r="14.28" xlink:href="#radial-gradient-3"/><radialGradient id="radial-gradient-6" cx="284.71" cy="192.81" r="5.69" xlink:href="#radial-gradient-4"/></defs><path d="M521.37,123a11.83,11.83,0,0,1,5.12,1,8.69,8.69,0,0,1,3.3,2.81l47.07,67.15a4.61,4.61,0,0,1,.75,2.49,4,4,0,0,1-.7,2.26,6.41,6.41,0,0,1-1.83,1.84,10,10,0,0,1-2.54,1.19,9.78,9.78,0,0,1-2.81.43,7,7,0,0,1-2.7-.49,4.78,4.78,0,0,1-2-1.67l-12.74-18.57h-60l-12,18.57a4.08,4.08,0,0,1-2,1.67,7.09,7.09,0,0,1-2.65.49,9.48,9.48,0,0,1-2.7-.43,9,9,0,0,1-2.54-1.24,7.6,7.6,0,0,1-1.83-1.84,4,4,0,0,1-.7-2.32,4.85,4.85,0,0,1,.75-2.38l44.27-67.15a7.71,7.71,0,0,1,3.24-2.81A12.5,12.5,0,0,1,521.37,123Zm-21.7,46.75h44.58l-22.88-33.58Z"/><path d="M597.69,197c0,2.09-.57,3.45-1.72,4.1a10.87,10.87,0,0,1-5.19,1,10.45,10.45,0,0,1-5.12-1c-1.12-.65-1.68-2-1.68-4.1V128c0-2.09.56-3.46,1.68-4.1a10.44,10.44,0,0,1,5.12-1,10.86,10.86,0,0,1,5.19,1c1.15.64,1.72,2,1.72,4.1Z"/><path d="M614.1,140.61V128c0-2.09.56-3.46,1.68-4.1a10.46,10.46,0,0,1,5.13-1,10.81,10.81,0,0,1,5.18,1c1.15.64,1.72,2,1.72,4.1v12.63h22.78c1.66,0,2.72.47,3.19,1.4a9.47,9.47,0,0,1,.7,4.11,9,9,0,0,1-.7,4c-.47.91-1.53,1.35-3.19,1.35H627.81V197c0,2.09-.57,3.45-1.72,4.1a10.83,10.83,0,0,1-5.18,1,10.47,10.47,0,0,1-5.13-1c-1.12-.65-1.68-2-1.68-4.1V151.51H608c-1.66,0-2.72-.44-3.19-1.35a9.12,9.12,0,0,1-.7-4,9.62,9.62,0,0,1,.7-4.11c.47-.93,1.53-1.4,3.19-1.4Z"/><path d="M671.75,177.32v5.5c0,2.16,1.37,4,4.11,5.56S683,190.7,689,190.7h12.41c1.66,0,2.72.45,3.19,1.35a9.06,9.06,0,0,1,.7,4,9.47,9.47,0,0,1-.7,4.11c-.47.93-1.53,1.4-3.19,1.4H688.6q-30.55,0-30.56-18.79V159.4q0-18.79,30.56-18.79h24.94q16.19,0,23.37,4.64t7.18,14.15v12.41c0,2.09-.4,3.53-1.19,4.32s-2.55,1.19-5.29,1.19Zm0-10.69h58.63V159.4c0-2.52-1.35-4.47-4-5.83s-7.11-2.06-13.23-2.06H689q-9.07,0-13.17,2.27c-2.74,1.51-4.11,3.39-4.11,5.62Z"/><path d="M788.35,140.61c1.66,0,2.72.47,3.19,1.4a9.47,9.47,0,0,1,.7,4.11,9,9,0,0,1-.7,4c-.47.91-1.53,1.35-3.19,1.35h-8.42q-8,0-11.12,2.06a6.46,6.46,0,0,0-3.13,5.72V197c0,2.09-.58,3.45-1.73,4.1a10.83,10.83,0,0,1-5.18,1,10.52,10.52,0,0,1-5.13-1c-1.11-.65-1.67-2-1.67-4.1V159.29q0-9.39,7.18-14t20.78-4.64Z"/><path d="M810.59,177.32v5.5c0,2.16,1.37,4,4.1,5.56s7.13,2.32,13.18,2.32h12.41c1.66,0,2.72.45,3.19,1.35a9.2,9.2,0,0,1,.7,4,9.62,9.62,0,0,1-.7,4.11c-.47.93-1.53,1.4-3.19,1.4H827.43q-30.55,0-30.55-18.79V159.4q0-18.79,30.55-18.79h24.94q16.2,0,23.38,4.64t7.18,14.15v12.41c0,2.09-.4,3.53-1.19,4.32s-2.56,1.19-5.29,1.19Zm0-10.69h58.63V159.4c0-2.52-1.35-4.47-4.05-5.83s-7.11-2.06-13.23-2.06H827.87q-9.07,0-13.18,2.27c-2.73,1.51-4.1,3.39-4.1,5.62Z"/><path d="M963.57,128c0-2.09.58-3.46,1.73-4.1a10.81,10.81,0,0,1,5.18-1,10.48,10.48,0,0,1,5.13,1c1.12.64,1.67,2,1.67,4.1v54.84q0,18.8-30.55,18.79H920.82q-30.55,0-30.55-18.79V159.4q0-18.79,30.55-18.79h42.75Zm-42.32,23.53c-6,0-10.44.76-13.17,2.27s-4.1,3.39-4.1,5.62v23.42c0,2.16,1.36,4,4.1,5.56s7.13,2.32,13.17,2.32h25c6.05,0,10.43-.77,13.17-2.32s4.1-3.4,4.1-5.56V151.51Z"/><path class="cls-1" d="M1034.18,123a11.85,11.85,0,0,1,5.13,1,8.59,8.59,0,0,1,3.29,2.81l47.07,67.15a4.54,4.54,0,0,1,.76,2.49,4.11,4.11,0,0,1-.7,2.26,6.33,6.33,0,0,1-1.84,1.84,9.83,9.83,0,0,1-5.34,1.62,7,7,0,0,1-2.7-.49,4.72,4.72,0,0,1-2-1.67l-12.74-18.57h-60l-12,18.57a4.1,4.1,0,0,1-2,1.67,7.08,7.08,0,0,1-2.64.49,9.37,9.37,0,0,1-2.7-.43,8.7,8.7,0,0,1-2.54-1.24,7.47,7.47,0,0,1-1.84-1.84,4.07,4.07,0,0,1-.7-2.32,4.77,4.77,0,0,1,.76-2.38l44.26-67.15a7.71,7.71,0,0,1,3.24-2.81A12.53,12.53,0,0,1,1034.18,123Zm-21.7,46.75h44.59l-22.89-33.58Z"/><path class="cls-1" d="M1111.16,197c0,2.09-.62,3.45-1.84,4.1a11.81,11.81,0,0,1-5.4,1,11.55,11.55,0,0,1-5.29-1c-1.22-.65-1.83-2-1.83-4.1V128c0-2.09.61-3.46,1.83-4.1a11.53,11.53,0,0,1,5.29-1,11.79,11.79,0,0,1,5.4,1c1.22.64,1.84,2,1.84,4.1Z"/><path class="cls-2" d="M278.64,28.31a103.66,103.66,0,0,1,25.88,0c4.92.63,43.55,6.1,68.4,37,33.34,41.42,16.21,96.67,12.94,107.22C372.26,216.35,339.23,240.25,323,252a178.41,178.41,0,0,1-46.21,24c-17.83,6-33,4.18-33.28,7.4-.23,3.07,13.31,3.69,35.13,12.94,18.32,7.77,26.19,14.71,31.42,11.09,5.81-4,.84-15.9,9.25-22.18,3.33-2.5,7.85-3.42,9.24-3.7a27.92,27.92,0,0,1,11.09,0c4.22.86,6.13,2.3,9.24,3.7,7.42,3.31,20.45,5.79,25.89,0,3-3.22,3.66-9,3.69-9.25.22-2.11-.15-2.44,0-5.54.24-4.72.36-7.22,1.85-9.25,2.92-4,8.67-2.81,9.24-5.54.17-.8-.18-1.53-1.84-3.7-4.8-6.27-7.83-8.07-7.4-9.24.77-2.1,11.26,1.32,12.94-1.85.71-1.34-.86-2.49-1.85-7.4-1.1-5.51-.41-6.86,0-7.39.68-.87,1.69-1.22,3.7-1.85,4.11-1.29,5.81-.63,9.24-1.85a14.54,14.54,0,0,0,3.7-1.85c5.44-4.58-19.28-43.52-22.18-48.06"/><circle class="cls-3" cx="142.98" cy="63.72" r="9.9"/><circle class="cls-3" cx="200.06" cy="82.52" r="13.2"/><circle class="cls-3" cx="259.12" cy="66.36" r="11.88"/><circle class="cls-3" cx="158.82" cy="123.1" r="7.92"/><circle class="cls-4" cx="178.28" cy="143.23" r="7.92"/><circle class="cls-3" cx="339.62" cy="150.82" r="11.88"/><circle class="cls-3" cx="194.45" cy="200.97" r="7.92"/><circle class="cls-3" cx="230.08" cy="220.76" r="10.56"/><circle class="cls-5" cx="178.28" cy="143.23" r="5.28"/><circle class="cls-6" cx="277.45" cy="117.67" r="22.59"/><circle class="cls-3" cx="319.16" cy="89.45" r="9.24"/><circle class="cls-7" cx="238.66" cy="165.99" r="9.24"/><circle class="cls-8" cx="277.45" cy="117.67" r="14.87"/><circle class="cls-9" cx="277.45" cy="117.67" r="9"/><circle class="cls-10" cx="199.92" cy="82.81" r="5.98"/><circle class="cls-11" cx="277.45" cy="117.67" r="7.43"/><circle class="cls-12" cx="199.92" cy="82.81" r="3.99"/><circle class="cls-13" cx="102.07" cy="96.71" r="13.2"/><circle class="cls-13" cx="102.07" cy="96.71" r="8.8"/><circle class="cls-14" cx="143.63" cy="183.16" r="23.11"/><circle class="cls-15" cx="143.63" cy="183.16" r="15.22"/><circle class="cls-16" cx="143.63" cy="183.16" r="9.21"/><circle class="cls-17" cx="143.63" cy="183.16" r="7.6"/><circle class="cls-18" cx="284.71" cy="192.81" r="14.28"/><circle class="cls-19" cx="284.71" cy="192.81" r="9.4"/><circle class="cls-20" cx="284.71" cy="192.81" r="7.14"/><circle class="cls-21" cx="284.71" cy="192.81" r="5.69"/><rect class="cls-22" x="186.53" y="133.66" width="79.18" transform="translate(-18.56 38.13) rotate(-9.26)"/><rect class="cls-22" x="212.38" y="73.87" width="35.65" transform="translate(-11.11 59.05) rotate(-14.28)"/><rect class="cls-22" x="306.94" y="119.04" width="43.12" height="0.18" transform="translate(346.27 -229.85) rotate(72.98)"/><rect class="cls-22" x="288.45" y="101.58" width="24.58" height="0.6" transform="translate(607.84 21.12) rotate(146.55)"/><rect class="cls-23" x="151.1" y="72.9" width="37.02" height="0.39" transform="translate(31.48 -49.5) rotate(18.28)"/><rect class="cls-24" x="109.83" y="78.81" width="27.74" transform="translate(266.9 47.07) rotate(135)"/><rect class="cls-22" x="162.56" y="132.59" width="10.38" transform="translate(142.89 -79.78) rotate(45)"/><rect class="cls-22" x="121.81" y="106.56" width="0.11" height="67.1" transform="translate(-44.87 58.37) rotate(-22.87)"/><rect class="cls-22" x="201.73" y="197.39" width="74.11" transform="translate(-18.32 24.53) rotate(-5.66)"/><rect class="cls-22" x="164.31" y="172.46" width="43.98" height="0.03" transform="translate(303.62 -52.68) rotate(74.73)"/><rect class="cls-22" x="247.88" y="158.36" width="80.78" height="0.15" transform="translate(-21.4 47.52) rotate(-9.09)"/><rect class="cls-22" x="238" y="206.94" width="41.58" height="0.27" transform="translate(-63.6 130.16) rotate(-25.25)"/><rect class="cls-25" x="266.36" y="77.56" width="0.26" height="26.3" transform="translate(-14.88 81.97) rotate(-17.02)"/></svg>