<svg id="Layer_1" data-name="Layer 1" xmlns="http://www.w3.org/2000/svg" viewBox="0 0 1137.52 324.66"><defs><style>.cls-1{fill:none;stroke-width:6.28px;}.cls-1,.cls-10,.cls-11,.cls-12,.cls-13,.cls-14,.cls-15,.cls-16,.cls-2,.cls-3,.cls-4,.cls-5,.cls-6,.cls-7,.cls-8,.cls-9{stroke:#fff;stroke-miterlimit:10;}.cls-10,.cls-11,.cls-12,.cls-13,.cls-14,.cls-15,.cls-16,.cls-2,.cls-3,.cls-4,.cls-5,.cls-6,.cls-7,.cls-8,.cls-9{fill:#fff;}.cls-2{stroke-width:1.39px;}.cls-3{stroke-width:2.08px;}.cls-4{stroke-width:2.99px;}.cls-5{stroke-width:0.83px;}.cls-6{stroke-width:1.5px;}.cls-7{stroke-width:0.37px;}.cls-8{stroke-width:0.42px;}.cls-9{stroke-width:0.35px;}.cls-10{stroke-width:1.53px;}.cls-11{stroke-width:0.38px;}.cls-12{stroke-width:0.95px;}.cls-13{stroke-width:0.36px;}.cls-14{stroke-width:0.24px;}.cls-15{stroke-width:1.06px;}.cls-16{stroke-width:1.39px;}</style></defs><path class="cls-1" d="M193.4,4.06a117.67,117.67,0,0,1,29.33,0c5.58.71,49.35,6.91,77.51,41.9C338,92.91,318.61,155.51,314.9,167.47c-15.4,49.68-52.83,76.77-71.22,90.08a202.29,202.29,0,0,1-52.38,27.24c-20.19,6.73-37.43,4.73-37.71,8.38-.26,3.47,15.09,4.18,39.81,14.66,20.77,8.8,29.69,16.68,35.61,12.57,6.59-4.57,1-18,10.48-25.14,3.78-2.83,8.9-3.87,10.47-4.19a31.63,31.63,0,0,1,12.57,0c4.78,1,6.94,2.61,10.47,4.19,8.4,3.75,23.18,6.57,29.33,0,3.42-3.65,4.16-10.16,4.19-10.47.25-2.4-.17-2.77,0-6.29.27-5.34.41-8.18,2.1-10.47,3.3-4.5,9.82-3.19,10.47-6.29.2-.9-.21-1.73-2.09-4.19-5.43-7.1-8.87-9.14-8.38-10.47.87-2.38,12.76,1.5,14.66-2.1.81-1.51-1-2.81-2.09-8.38-1.25-6.24-.47-7.77,0-8.38.76-1,1.9-1.38,4.19-2.09,4.65-1.46,6.59-.72,10.47-2.1a17.06,17.06,0,0,0,4.19-2.09c6.17-5.2-21.84-49.32-25.14-54.47"/><path class="cls-2" d="M468.47,111.38a13.38,13.38,0,0,1,5.81,1.1,9.87,9.87,0,0,1,3.73,3.18l53.34,76.1a5.19,5.19,0,0,1,.86,2.81,4.63,4.63,0,0,1-.8,2.57,7.11,7.11,0,0,1-2.08,2.08,11.3,11.3,0,0,1-2.87,1.35,11,11,0,0,1-3.18.49,8.11,8.11,0,0,1-3.06-.55,5.4,5.4,0,0,1-2.33-1.9l-14.43-21h-68l-13.58,21a4.63,4.63,0,0,1-2.26,1.9,8.32,8.32,0,0,1-3,.55,10.6,10.6,0,0,1-3.06-.49,10,10,0,0,1-2.87-1.41,8.22,8.22,0,0,1-2.08-2.08,4.54,4.54,0,0,1-.8-2.63,5.46,5.46,0,0,1,.86-2.69l50.16-76.1a8.81,8.81,0,0,1,3.67-3.18A14.14,14.14,0,0,1,468.47,111.38Zm-24.6,53H494.4l-25.93-38.05Z"/><path class="cls-2" d="M555,195.19q0,3.54-2,4.65a12.33,12.33,0,0,1-5.87,1.1,12,12,0,0,1-5.81-1.1q-1.91-1.11-1.9-4.65V117q0-3.56,1.9-4.65a12,12,0,0,1,5.81-1.1,12.33,12.33,0,0,1,5.87,1.1q2,1.1,2,4.65Z"/><path class="cls-2" d="M573.56,131.32V117q0-3.56,1.89-4.65a12,12,0,0,1,5.81-1.1,12.4,12.4,0,0,1,5.88,1.1q2,1.1,2,4.65v14.31h25.82c1.87,0,3.08.53,3.61,1.59a10.72,10.72,0,0,1,.79,4.65,10.31,10.31,0,0,1-.79,4.59c-.53,1-1.74,1.53-3.61,1.53H589.09v51.51q0,3.54-2,4.65a12.4,12.4,0,0,1-5.88,1.1,12,12,0,0,1-5.81-1.1q-1.89-1.11-1.89-4.65V143.68h-7c-1.87,0-3.08-.51-3.61-1.53a10.31,10.31,0,0,1-.79-4.59,10.72,10.72,0,0,1,.79-4.65c.53-1.06,1.74-1.59,3.61-1.59Z"/><path class="cls-2" d="M638.89,172.92v6.24q0,3.68,4.65,6.3t14.92,2.63h14.07c1.88,0,3.08.51,3.61,1.53a10.29,10.29,0,0,1,.8,4.59,10.7,10.7,0,0,1-.8,4.65c-.53,1.06-1.73,1.59-3.61,1.59H658q-34.62,0-34.62-21.29V152.61q0-21.29,34.62-21.29h28.27q18.35,0,26.48,5.26t8.14,16v14.07q0,3.56-1.35,4.89c-.9.9-2.89,1.35-6,1.35Zm0-12.11h66.43v-8.2c0-2.85-1.53-5.06-4.59-6.61s-8.05-2.32-15-2.32H658.46q-10.28,0-14.92,2.57t-4.65,6.36Z"/><path class="cls-2" d="M771,131.32c1.87,0,3.08.53,3.61,1.59a10.72,10.72,0,0,1,.79,4.65,10.31,10.31,0,0,1-.79,4.59c-.53,1-1.74,1.53-3.61,1.53h-9.54q-9.06,0-12.61,2.32a7.36,7.36,0,0,0-3.54,6.49v42.7c0,2.36-.66,3.91-2,4.65a12.38,12.38,0,0,1-5.87,1.1,12,12,0,0,1-5.81-1.1q-1.91-1.11-1.9-4.65v-42.7q0-10.65,8.13-15.91t23.56-5.26Z"/><path class="cls-2" d="M796.22,172.92v6.24q0,3.68,4.65,6.3t14.93,2.63h14.07q2.8,0,3.6,1.53a10.29,10.29,0,0,1,.8,4.59,10.7,10.7,0,0,1-.8,4.65q-.79,1.59-3.6,1.59H815.31q-34.63,0-34.63-21.29V152.61q0-21.29,34.63-21.29h28.26q18.34,0,26.49,5.26t8.13,16v14.07q0,3.56-1.34,4.89t-6,1.35Zm0-12.11h66.43v-8.2c0-2.85-1.53-5.06-4.58-6.61s-8.06-2.32-15-2.32H815.8q-10.29,0-14.93,2.57t-4.65,6.36Z"/><path class="cls-2" d="M969.58,117q0-3.56,2-4.65a12.33,12.33,0,0,1,5.87-1.1,12,12,0,0,1,5.81,1.1q1.9,1.1,1.9,4.65v62.15q0,21.28-34.62,21.29H921.13q-34.62,0-34.62-21.29V152.61q0-21.29,34.62-21.29h48.45Zm-48,26.67q-10.27,0-14.92,2.57t-4.65,6.36v26.55q0,3.68,4.65,6.3t14.92,2.63H950q10.28,0,14.92-2.63t4.65-6.3V143.68Z"/><path class="cls-2" d="M1049.6,111.38a13.38,13.38,0,0,1,5.81,1.1,9.79,9.79,0,0,1,3.73,3.18l53.34,76.1a5.19,5.19,0,0,1,.86,2.81,4.63,4.63,0,0,1-.8,2.57,7.11,7.11,0,0,1-2.08,2.08,11.18,11.18,0,0,1-6,1.84,8.14,8.14,0,0,1-3.06-.55,5.4,5.4,0,0,1-2.33-1.9l-14.43-21h-68l-13.58,21a4.63,4.63,0,0,1-2.26,1.9,8.32,8.32,0,0,1-3,.55,10.6,10.6,0,0,1-3.06-.49,10,10,0,0,1-2.87-1.41,8.22,8.22,0,0,1-2.08-2.08,4.54,4.54,0,0,1-.8-2.63,5.46,5.46,0,0,1,.86-2.69l50.16-76.1a8.81,8.81,0,0,1,3.67-3.18A14.14,14.14,0,0,1,1049.6,111.38Zm-24.59,53h50.52l-25.93-38.05Z"/><path class="cls-2" d="M1136.83,195.19c0,2.36-.7,3.91-2.08,4.65a13.51,13.51,0,0,1-6.12,1.1,13.18,13.18,0,0,1-6-1.1c-1.38-.74-2.08-2.29-2.08-4.65V117c0-2.37.7-3.92,2.08-4.65a13.18,13.18,0,0,1,6-1.1,13.51,13.51,0,0,1,6.12,1.1c1.38.73,2.08,2.28,2.08,4.65Z"/><circle class="cls-3" cx="39.67" cy="44.18" r="11.22"/><circle class="cls-3" cx="104.35" cy="65.5" r="14.96"/><circle class="cls-3" cx="171.28" cy="47.18" r="13.46"/><circle class="cls-3" cx="57.62" cy="111.48" r="8.97"/><circle class="cls-4" cx="79.68" cy="134.29" r="8.97"/><circle class="cls-3" cx="262.5" cy="142.89" r="13.46"/><circle class="cls-3" cx="98" cy="199.72" r="8.97"/><circle class="cls-3" cx="138.38" cy="222.15" r="11.96"/><circle class="cls-5" cx="79.68" cy="134.29" r="5.98"/><circle class="cls-2" cx="192.06" cy="105.33" r="25.6"/><circle class="cls-3" cx="239.32" cy="73.35" r="10.47"/><circle class="cls-6" cx="148.1" cy="160.09" r="10.47"/><circle class="cls-6" cx="192.06" cy="105.33" r="16.86"/><circle class="cls-7" cx="192.06" cy="105.33" r="10.2"/><circle class="cls-8" cx="104.19" cy="65.82" r="6.78"/><circle class="cls-7" cx="192.06" cy="105.33" r="8.42"/><circle class="cls-9" cx="104.19" cy="65.82" r="4.53"/><circle class="cls-2" cx="40.4" cy="179.55" r="26.19"/><circle class="cls-10" cx="40.4" cy="179.55" r="17.24"/><circle class="cls-11" cx="40.4" cy="179.55" r="10.44"/><circle class="cls-11" cx="40.4" cy="179.55" r="8.62"/><circle class="cls-2" cx="200.28" cy="190.48" r="16.18"/><circle class="cls-12" cx="200.28" cy="190.48" r="10.65"/><circle class="cls-13" cx="200.28" cy="190.48" r="8.1"/><circle class="cls-14" cx="200.28" cy="190.48" r="6.45"/><rect class="cls-2" x="89.02" y="123.45" width="89.73" transform="translate(-18.12 23.16) rotate(-9.26)"/><rect class="cls-2" x="118.32" y="55.69" width="40.4" transform="translate(-9.46 35.88) rotate(-14.28)"/><rect class="cls-2" x="225.48" y="106.88" width="48.86" height="0.21" transform="translate(279.06 -163.29) rotate(72.98)"/><rect class="cls-2" x="204.52" y="87.09" width="27.86" height="0.68" transform="translate(448.92 39.98) rotate(146.55)"/><rect class="cls-15" x="48.88" y="54.59" width="41.96" height="0.44" transform="translate(20.71 -19.14) rotate(18.28)"/><rect class="cls-16" x="2.1" y="61.29" width="31.43" transform="translate(73.76 92.03) rotate(135)"/><rect class="cls-2" x="61.86" y="122.24" width="11.76" transform="translate(106.27 -12.09) rotate(45)"/><rect class="cls-2" x="15.68" y="92.73" width="0.13" height="76.04" transform="translate(-49.58 16.4) rotate(-22.87)"/><rect class="cls-2" x="106.25" y="195.67" width="83.98" transform="translate(-18.59 15.59) rotate(-5.66)"/><rect class="cls-2" x="63.85" y="167.42" width="49.84" height="0.03" transform="translate(226.91 37.7) rotate(74.73)"/><rect class="cls-2" x="158.54" y="151.44" width="91.54" height="0.16" transform="translate(-21.37 34.17) rotate(-9.09)"/><rect class="cls-2" x="147.35" y="206.48" width="47.12" height="0.31" transform="translate(-71.81 92.64) rotate(-25.25)"/><rect class="cls-2" x="179.48" y="59.88" width="0.3" height="29.8" transform="translate(-14.02 55.85) rotate(-17.02)"/></svg>