<svg id="Layer_1" data-name="Layer 1" xmlns="http://www.w3.org/2000/svg" xmlns:xlink="http://www.w3.org/1999/xlink" viewBox="0 0 1151.92 328.21"><defs><style>.cls-1,.cls-13,.cls-16,.cls-20,.cls-9{fill:#fff;}.cls-1,.cls-14,.cls-23,.cls-24,.cls-25,.cls-3,.cls-4,.cls-8{stroke:#fff;}.cls-1,.cls-10,.cls-11,.cls-12,.cls-13,.cls-14,.cls-16,.cls-17,.cls-18,.cls-20,.cls-21,.cls-22,.cls-23,.cls-24,.cls-25,.cls-3,.cls-4,.cls-5,.cls-6,.cls-8,.cls-9{stroke-miterlimit:10;}.cls-1,.cls-23{stroke-width:1.26px;}.cls-2{fill:red;}.cls-12,.cls-14,.cls-18,.cls-23,.cls-24,.cls-25,.cls-3,.cls-4,.cls-5,.cls-6,.cls-8{fill:none;}.cls-3{stroke-width:5.72px;}.cls-4{stroke-width:1.89px;}.cls-16,.cls-20,.cls-5{stroke:red;}.cls-5{stroke-width:2.72px;}.cls-21,.cls-22,.cls-6{stroke:#000;}.cls-6{stroke-width:0.76px;}.cls-7{fill:url(#radial-gradient);}.cls-8,.cls-9{stroke-width:1.36px;}.cls-9{stroke:blue;}.cls-10,.cls-12{stroke-width:0.34px;}.cls-10{fill:url(#radial-gradient-2);stroke:url(#New_Gradient_Swatch_1);}.cls-11{fill:blue;stroke-width:0.39px;stroke:url(#New_Gradient_Swatch_1-2);}.cls-12{stroke:url(#New_Gradient_Swatch_1-3);}.cls-13{stroke-width:0.32px;stroke:url(#New_Gradient_Swatch_1-4);}.cls-14{stroke-width:2.27px;}.cls-15{fill:url(#radial-gradient-3);}.cls-16{stroke-width:1.39px;}.cls-17,.cls-18{stroke-width:0.35px;}.cls-17{fill:url(#radial-gradient-4);stroke:url(#New_Gradient_Swatch_1-5);}.cls-18{stroke:url(#New_Gradient_Swatch_1-6);}.cls-19{fill:url(#radial-gradient-5);}.cls-20{stroke-width:0.86px;}.cls-21{stroke-width:0.33px;}.cls-22{stroke-width:0.21px;fill:url(#radial-gradient-6);}.cls-24{stroke-width:0.96px;}.cls-25{stroke-width:1.26px;}</style><radialGradient id="radial-gradient" cx="244.06" cy="106.66" r="23.02" gradientTransform="translate(-1.57 0.03) scale(1.02 1)" gradientUnits="userSpaceOnUse"><stop offset="0.35" stop-color="blue"/><stop offset="0.48" stop-color="#4859ff"/><stop offset="0.67" stop-color="#6a84ff"/><stop offset="0.79" stop-color="#42529e"/><stop offset="1"/></radialGradient><radialGradient id="radial-gradient-2" cx="244.06" cy="106.66" r="9.18" gradientTransform="translate(-1.57 0.03) scale(1.02 1)" gradientUnits="userSpaceOnUse"><stop offset="0" stop-color="#ff0"/><stop offset="0.78" stop-color="#fffff1"/><stop offset="1" stop-color="#fff"/></radialGradient><linearGradient id="New_Gradient_Swatch_1" x1="238.91" y1="106.53" x2="258.05" y2="106.53" gradientUnits="userSpaceOnUse"><stop offset="0" stop-color="#1525ed"/><stop offset="0.17" stop-color="red"/><stop offset="0.29" stop-color="#ff0"/><stop offset="0.37" stop-color="#ff0"/><stop offset="0.4" stop-color="#0415ff"/><stop offset="0.57" stop-color="red"/><stop offset="0.76" stop-color="red"/><stop offset="0.97" stop-color="#ff0"/></linearGradient><linearGradient id="New_Gradient_Swatch_1-2" x1="161.08" y1="71.05" x2="173.96" y2="71.05" xlink:href="#New_Gradient_Swatch_1"/><linearGradient id="New_Gradient_Swatch_1-3" x1="240.55" y1="106.53" x2="256.41" y2="106.53" xlink:href="#New_Gradient_Swatch_1"/><linearGradient id="New_Gradient_Swatch_1-4" x1="163.19" y1="71.05" x2="171.85" y2="71.05" xlink:href="#New_Gradient_Swatch_1"/><radialGradient id="radial-gradient-3" cx="107.67" cy="173.41" r="23.55" gradientTransform="translate(-1.57 0.03) scale(1.02 1)" gradientUnits="userSpaceOnUse"><stop offset="0.28" stop-color="red"/><stop offset="0.45" stop-color="#ff1a1a"/><stop offset="0.69" stop-color="#ff837f"/><stop offset="1"/><stop offset="1" stop-color="#fff"/><stop offset="1" stop-color="#ffd8d8"/></radialGradient><radialGradient id="radial-gradient-4" cx="107.67" cy="173.41" r="9.39" gradientTransform="translate(-1.57 0.03) scale(1.02 1)" gradientUnits="userSpaceOnUse"><stop offset="0" stop-color="aqua"/><stop offset="0.78" stop-color="#fffff1"/><stop offset="1" stop-color="#fff"/></radialGradient><linearGradient id="New_Gradient_Swatch_1-5" x1="98.95" y1="173.17" x2="118.53" y2="173.17" xlink:href="#New_Gradient_Swatch_1"/><linearGradient id="New_Gradient_Swatch_1-6" x1="100.63" y1="173.17" x2="116.85" y2="173.17" xlink:href="#New_Gradient_Swatch_1"/><radialGradient id="radial-gradient-5" cx="251.46" cy="183.24" r="14.55" gradientTransform="translate(-1.57 0.03) scale(1.02 1)" gradientUnits="userSpaceOnUse"><stop offset="0.37" stop-color="red"/><stop offset="0.37" stop-color="#ff0808"/><stop offset="0.65" stop-color="#ff8973"/><stop offset="0.74" stop-color="#ff987f"/><stop offset="0.85" stop-color="#ffe1e1"/><stop offset="0.98" stop-color="#250707"/></radialGradient><radialGradient id="radial-gradient-6" cx="251.46" cy="183.24" r="5.8" xlink:href="#radial-gradient-4"/></defs><path class="cls-1" d="M484.5,118.36a12.66,12.66,0,0,1,5.35,1,8.93,8.93,0,0,1,3.44,2.86l49.15,68.33a4.54,4.54,0,0,1,.79,2.53,4.07,4.07,0,0,1-.73,2.31,6.72,6.72,0,0,1-1.92,1.87,10.17,10.17,0,0,1-2.65,1.2,9.87,9.87,0,0,1-2.93.44,7.49,7.49,0,0,1-2.81-.49,5,5,0,0,1-2.15-1.7l-13.3-18.9H454.06l-12.51,18.9a4.29,4.29,0,0,1-2.09,1.7,7.64,7.64,0,0,1-2.76.49,9.6,9.6,0,0,1-2.82-.44,9.13,9.13,0,0,1-2.65-1.26,7.4,7.4,0,0,1-1.91-1.87,4,4,0,0,1-.74-2.36,4.87,4.87,0,0,1,.79-2.42l46.22-68.33a8.05,8.05,0,0,1,3.39-2.86A13.34,13.34,0,0,1,484.5,118.36Zm-22.66,47.57H508.4l-23.9-34.17Z"/><path class="cls-1" d="M564.2,193.61q0,3.19-1.8,4.17a11.61,11.61,0,0,1-5.41,1,11.21,11.21,0,0,1-5.36-1c-1.17-.65-1.75-2-1.75-4.17v-70.2c0-2.12.58-3.52,1.75-4.18a11.35,11.35,0,0,1,5.36-1,11.75,11.75,0,0,1,5.41,1c1.2.66,1.8,2.06,1.8,4.18Z"/><path class="cls-1" d="M581.33,136.26V123.41c0-2.12.59-3.52,1.75-4.18a11.38,11.38,0,0,1,5.36-1,11.72,11.72,0,0,1,5.41,1c1.2.66,1.8,2.06,1.8,4.18v12.85h23.79c1.73,0,2.83.48,3.32,1.43a9.39,9.39,0,0,1,.74,4.18,9,9,0,0,1-.74,4.12c-.49.91-1.59,1.37-3.32,1.37H595.65v46.25q0,3.19-1.8,4.17a11.58,11.58,0,0,1-5.41,1,11.24,11.24,0,0,1-5.36-1c-1.16-.65-1.75-2-1.75-4.17V147.36h-6.42c-1.73,0-2.84-.46-3.33-1.37a9,9,0,0,1-.73-4.12,9.41,9.41,0,0,1,.73-4.18c.49-.95,1.6-1.43,3.33-1.43Z"/><path class="cls-1" d="M641.53,173.62v5.6c0,2.2,1.43,4.08,4.29,5.66s7.44,2.36,13.75,2.36h13c1.72,0,2.83.46,3.32,1.37a9,9,0,0,1,.73,4.12,9.41,9.41,0,0,1-.73,4.18c-.49,1-1.6,1.42-3.32,1.42H659.12q-31.9,0-31.9-19.11V155.38q0-19.12,31.9-19.12h26q16.92,0,24.41,4.73t7.5,14.39V168c0,2.13-.42,3.59-1.24,4.4s-2.67,1.21-5.53,1.21Zm0-10.88h61.22v-7.36q0-3.84-4.23-5.93t-13.81-2.09H659.57q-9.47,0-13.75,2.31c-2.86,1.53-4.29,3.44-4.29,5.71Z"/><path class="cls-1" d="M763.29,136.26c1.72,0,2.83.48,3.32,1.43a9.41,9.41,0,0,1,.73,4.18,9,9,0,0,1-.73,4.12c-.49.91-1.6,1.37-3.32,1.37h-8.8q-8.34,0-11.61,2.09a6.55,6.55,0,0,0-3.27,5.82v38.34q0,3.19-1.8,4.17a11.61,11.61,0,0,1-5.41,1,11.24,11.24,0,0,1-5.36-1c-1.16-.65-1.75-2-1.75-4.17V155.27q0-9.56,7.5-14.28t21.7-4.73Z"/><path class="cls-1" d="M786.51,173.62v5.6c0,2.2,1.42,4.08,4.28,5.66s7.44,2.36,13.76,2.36h13c1.73,0,2.84.46,3.32,1.37a9,9,0,0,1,.74,4.12,9.39,9.39,0,0,1-.74,4.18c-.48,1-1.59,1.42-3.32,1.42H804.09q-31.9,0-31.9-19.11V155.38q0-19.12,31.9-19.12h26q16.9,0,24.4,4.73t7.5,14.39V168c0,2.13-.42,3.59-1.24,4.4s-2.67,1.21-5.53,1.21Zm0-10.88h61.21v-7.36q0-3.84-4.23-5.93t-13.81-2.09H804.55q-9.48,0-13.76,2.31c-2.86,1.53-4.28,3.44-4.28,5.71Z"/><path class="cls-1" d="M946.25,123.41c0-2.12.6-3.52,1.8-4.18a11.75,11.75,0,0,1,5.41-1,11.38,11.38,0,0,1,5.36,1c1.16.66,1.75,2.06,1.75,4.18v55.81q0,19.11-31.91,19.11h-27q-31.9,0-31.91-19.11V155.38q0-19.12,31.91-19.12h44.64Zm-44.19,24q-9.48,0-13.76,2.31c-2.85,1.53-4.28,3.44-4.28,5.71v23.84c0,2.2,1.43,4.08,4.28,5.66s7.44,2.36,13.76,2.36h26.15q9.48,0,13.76-2.36c2.85-1.58,4.28-3.46,4.28-5.66V147.36Z"/><path class="cls-2" d="M1020,118.36a12.66,12.66,0,0,1,5.35,1,8.93,8.93,0,0,1,3.44,2.86l49.15,68.33a4.54,4.54,0,0,1,.79,2.53,4.07,4.07,0,0,1-.73,2.31,6.72,6.72,0,0,1-1.92,1.87,10.17,10.17,0,0,1-2.65,1.2,9.87,9.87,0,0,1-2.93.44,7.49,7.49,0,0,1-2.81-.49,5,5,0,0,1-2.15-1.7l-13.3-18.9H989.54L977,196.69a4.29,4.29,0,0,1-2.09,1.7,7.64,7.64,0,0,1-2.76.49,9.6,9.6,0,0,1-2.82-.44,9.13,9.13,0,0,1-2.65-1.26,7.4,7.4,0,0,1-1.91-1.87,4,4,0,0,1-.74-2.36,4.77,4.77,0,0,1,.79-2.42l46.22-68.33a8.08,8.08,0,0,1,3.38-2.86A13.43,13.43,0,0,1,1020,118.36Zm-22.66,47.57h46.56L1020,131.76Z"/><path class="cls-2" d="M1100.36,193.61q0,3.19-1.92,4.17a12.66,12.66,0,0,1-5.64,1,12.32,12.32,0,0,1-5.52-1q-1.92-1-1.92-4.17v-70.2c0-2.12.64-3.52,1.92-4.18a12.48,12.48,0,0,1,5.52-1,12.82,12.82,0,0,1,5.64,1c1.28.66,1.92,2.06,1.92,4.18Z"/><path class="cls-3" d="M231,22a111,111,0,0,1,27,0c5.14.64,45.47,6.2,71.42,37.62C364.31,101.77,346.42,158,343,168.72c-14.19,44.61-48.69,68.94-65.63,80.89a188.47,188.47,0,0,1-48.26,24.46c-18.61,6.05-34.5,4.24-34.75,7.52-.24,3.12,13.9,3.76,36.68,13.17,19.14,7.91,27.36,15,32.82,11.29,6.06-4.1.87-16.18,9.65-22.58,3.48-2.54,8.2-3.47,9.65-3.76a30,30,0,0,1,11.58,0c4.4.88,6.4,2.35,9.65,3.76,7.74,3.37,21.36,5.9,27,0,3.15-3.27,3.83-9.12,3.86-9.4.23-2.15-.16-2.49,0-5.65.25-4.79.38-7.34,1.93-9.4,3.05-4,9.05-2.87,9.65-5.65.18-.81-.2-1.55-1.93-3.76-5-6.38-8.17-8.21-7.72-9.4.8-2.14,11.76,1.34,13.51-1.89.74-1.36-.9-2.52-1.93-7.52-1.15-5.61-.43-7,0-7.53.71-.88,1.76-1.23,3.86-1.88,4.29-1.31,6.07-.64,9.66-1.88a15.83,15.83,0,0,0,3.86-1.88C371.85,213,346,173.35,343,168.72"/><ellipse class="cls-4" cx="108.06" cy="51.62" rx="10.34" ry="10.07"/><ellipse class="cls-4" cx="167.66" cy="70.76" rx="13.78" ry="13.43"/><ellipse class="cls-4" cx="229.33" cy="54.31" rx="12.4" ry="12.09"/><ellipse class="cls-4" cx="124.6" cy="112.05" rx="8.27" ry="8.06"/><ellipse class="cls-5" cx="144.93" cy="132.53" rx="8.27" ry="8.06"/><ellipse class="cls-4" cx="313.39" cy="140.25" rx="12.4" ry="12.09"/><ellipse class="cls-4" cx="161.81" cy="191.28" rx="8.27" ry="8.06"/><ellipse class="cls-4" cx="199.01" cy="211.43" rx="11.02" ry="10.74"/><ellipse class="cls-6" cx="144.93" cy="132.53" rx="5.51" ry="5.37"/><ellipse class="cls-7" cx="248.48" cy="106.53" rx="23.59" ry="22.99"/><ellipse class="cls-4" cx="292.03" cy="77.81" rx="9.65" ry="9.4"/><ellipse class="cls-8" cx="207.97" cy="155.7" rx="9.65" ry="9.4"/><ellipse class="cls-9" cx="248.48" cy="106.53" rx="15.53" ry="15.14"/><ellipse class="cls-10" cx="248.48" cy="106.53" rx="9.4" ry="9.16"/><ellipse class="cls-11" cx="167.52" cy="71.05" rx="6.25" ry="6.09"/><ellipse class="cls-12" cx="248.48" cy="106.53" rx="7.76" ry="7.56"/><ellipse class="cls-13" cx="167.52" cy="71.05" rx="4.17" ry="4.06"/><ellipse class="cls-14" cx="65.35" cy="85.19" rx="13.78" ry="13.43"/><ellipse class="cls-14" cx="65.35" cy="85.19" rx="9.19" ry="8.95"/><ellipse class="cls-15" cx="108.74" cy="173.17" rx="24.13" ry="23.52"/><ellipse class="cls-16" cx="108.74" cy="173.17" rx="15.89" ry="15.48"/><ellipse class="cls-17" cx="108.74" cy="173.17" rx="9.62" ry="9.37"/><ellipse class="cls-18" cx="108.74" cy="173.17" rx="7.94" ry="7.74"/><ellipse class="cls-19" cx="256.06" cy="182.98" rx="14.91" ry="14.53"/><ellipse class="cls-20" cx="256.06" cy="182.98" rx="9.82" ry="9.57"/><ellipse class="cls-21" cx="256.06" cy="182.98" rx="7.46" ry="7.27"/><ellipse class="cls-22" cx="256.06" cy="182.98" rx="5.94" ry="5.79"/><rect class="cls-23" x="153.57" y="122.8" width="82.63" transform="translate(-16.86 32.1) rotate(-9.03)"/><rect class="cls-23" x="180.56" y="61.96" width="37.17" transform="translate(-9.06 49.75) rotate(-13.93)"/><polygon class="cls-23" points="308.46 128.96 295.29 87 295.11 87.06 308.28 129.01 308.46 128.96"/><polygon class="cls-23" points="262.26 97.6 283.69 83.81 283.34 83.31 261.92 97.09 262.26 97.6"/><polygon class="cls-24" points="154.17 67.26 117.46 55.44 117.58 55.07 154.3 66.88 154.17 67.26"/><rect class="cls-25" x="73.63" y="66.98" width="28.6" transform="translate(197.65 53.59) rotate(135.74)"/><rect class="cls-23" x="129.85" y="121.71" width="10.7" transform="translate(123.32 -59.81) rotate(44.26)"/><polygon class="cls-23" points="72.35 97.92 99.58 160.83 99.68 160.79 72.45 97.88 72.35 97.92"/><rect class="cls-23" x="169.42" y="187.65" width="77.37" transform="translate(-17.09 20.89) rotate(-5.52)"/><polygon class="cls-23" points="158.94 183.51 147.35 142.13 147.02 142.22 158.62 183.59 158.94 183.51"/><polygon class="cls-23" points="301.4 141.44 218.11 154.42 218.14 154.57 301.43 141.58 301.4 141.44"/><polygon class="cls-23" points="248.57 188.35 209.3 206.4 209.42 206.65 248.69 188.6 248.57 188.35"/><polygon class="cls-23" points="241.18 91.84 240.92 91.92 232.88 66.34 233.14 66.26 241.18 91.84"/></svg>