<svg id="Layer_1" data-name="Layer 1" xmlns="http://www.w3.org/2000/svg" viewBox="0 0 1137.52 324.66"><defs><style>.cls-1{fill:none;stroke-width:5.7px;}.cls-1,.cls-10,.cls-11,.cls-12,.cls-13,.cls-14,.cls-15,.cls-16,.cls-2,.cls-3,.cls-4,.cls-5,.cls-6,.cls-7,.cls-8,.cls-9{stroke:#000;stroke-miterlimit:10;}.cls-2{stroke-width:1.26px;}.cls-3{stroke-width:1.89px;}.cls-4{stroke-width:2.71px;}.cls-5{stroke-width:0.75px;}.cls-6{stroke-width:1.36px;}.cls-7{stroke-width:0.34px;}.cls-8{stroke-width:0.38px;}.cls-9{stroke-width:0.32px;}.cls-10{stroke-width:1.39px;}.cls-11{stroke-width:0.35px;}.cls-12{stroke-width:0.86px;}.cls-13{stroke-width:0.33px;}.cls-14{stroke-width:0.21px;}.cls-15{stroke-width:0.96px;}.cls-16{stroke-width:1.26px;}</style></defs><path class="cls-1" d="M228,18.68a106.2,106.2,0,0,1,26.62,0c5.07.64,44.8,6.27,70.36,38,34.29,42.61,16.67,99.43,13.31,110.28-14,45.1-48,69.69-64.65,81.77a183.48,183.48,0,0,1-47.54,24.72c-18.33,6.11-34,4.29-34.22,7.6s13.69,3.8,36.12,13.31c18.86,8,26.95,15.14,32.33,11.41,6-4.14.86-16.35,9.51-22.82,3.43-2.56,8.08-3.51,9.5-3.8a28.94,28.94,0,0,1,11.41,0c4.34.89,6.31,2.37,9.51,3.8,7.62,3.41,21,6,26.62,0,3.1-3.31,3.77-9.22,3.8-9.5.23-2.17-.16-2.51,0-5.71.25-4.85.37-7.42,1.9-9.5,3-4.08,8.92-2.9,9.51-5.71.18-.82-.19-1.57-1.9-3.8-4.93-6.45-8-8.3-7.61-9.51.79-2.16,11.58,1.36,13.31-1.9.73-1.38-.89-2.56-1.9-7.61-1.13-5.66-.42-7.05,0-7.6.7-.9,1.73-1.25,3.81-1.9,4.22-1.33,6-.65,9.5-1.91a15.28,15.28,0,0,0,3.81-1.9c5.6-4.72-19.83-44.76-22.82-49.44"/><path class="cls-2" d="M477.63,116.09a12.14,12.14,0,0,1,5.27,1,8.84,8.84,0,0,1,3.39,2.89L534.71,189a4.78,4.78,0,0,1,.77,2.56,4.22,4.22,0,0,1-.72,2.33,6.63,6.63,0,0,1-1.88,1.89,10.18,10.18,0,0,1-5.5,1.66,7.18,7.18,0,0,1-2.78-.5,4.85,4.85,0,0,1-2.11-1.72l-13.1-19.1H447.65l-12.33,19.1a4.17,4.17,0,0,1-2.05,1.72,7.3,7.3,0,0,1-2.72.5,9.63,9.63,0,0,1-2.78-.44,9.07,9.07,0,0,1-2.61-1.28,7.38,7.38,0,0,1-1.89-1.89,4.12,4.12,0,0,1-.72-2.38,5,5,0,0,1,.78-2.45L468.86,120a7.88,7.88,0,0,1,3.33-2.89A12.84,12.84,0,0,1,477.63,116.09Zm-22.32,48.08h45.86l-23.54-34.54Z"/><path class="cls-2" d="M556.14,192.15c0,2.15-.6,3.56-1.78,4.22a11.1,11.1,0,0,1-5.33,1,10.73,10.73,0,0,1-5.27-1c-1.15-.66-1.73-2.07-1.73-4.22v-71c0-2.14.58-3.55,1.73-4.22a10.85,10.85,0,0,1,5.27-1,11.22,11.22,0,0,1,5.33,1c1.18.67,1.78,2.08,1.78,4.22Z"/><path class="cls-2" d="M573,134.19v-13c0-2.14.57-3.55,1.72-4.22a10.85,10.85,0,0,1,5.27-1,11.22,11.22,0,0,1,5.33,1c1.18.67,1.78,2.08,1.78,4.22v13h23.43c1.7,0,2.79.48,3.28,1.44a9.74,9.74,0,0,1,.72,4.22,9.32,9.32,0,0,1-.72,4.16c-.49.93-1.58,1.39-3.28,1.39H587.12v46.75c0,2.15-.6,3.56-1.78,4.22a11.1,11.1,0,0,1-5.33,1,10.73,10.73,0,0,1-5.27-1c-1.15-.66-1.72-2.07-1.72-4.22V145.4h-6.33c-1.71,0-2.8-.46-3.28-1.39a9.32,9.32,0,0,1-.72-4.16,9.74,9.74,0,0,1,.72-4.22c.48-1,1.57-1.44,3.28-1.44Z"/><path class="cls-2" d="M632.31,171.94v5.67q0,3.33,4.22,5.71t13.55,2.39h12.77c1.7,0,2.8.46,3.28,1.39a9.35,9.35,0,0,1,.72,4.16,9.71,9.71,0,0,1-.72,4.22c-.48,1-1.58,1.45-3.28,1.45H649.64q-31.42,0-31.43-19.32v-24.1q0-19.32,31.43-19.32h25.65q16.65,0,24,4.77t7.39,14.55v12.77q0,3.22-1.23,4.44c-.81.82-2.63,1.22-5.44,1.22Zm0-11h60.3v-7.44q0-3.88-4.16-6t-13.61-2.11H650.08q-9.33,0-13.55,2.33c-2.81,1.56-4.22,3.48-4.22,5.78Z"/><path class="cls-2" d="M752.24,134.19c1.71,0,2.8.48,3.28,1.44a9.74,9.74,0,0,1,.72,4.22,9.32,9.32,0,0,1-.72,4.16c-.48.93-1.57,1.39-3.28,1.39h-8.66q-8.22,0-11.44,2.11a6.68,6.68,0,0,0-3.22,5.89v38.75c0,2.15-.59,3.56-1.77,4.22a11.16,11.16,0,0,1-5.33,1,10.8,10.8,0,0,1-5.28-1c-1.15-.66-1.72-2.07-1.72-4.22V153.4q0-9.66,7.38-14.44t21.38-4.77Z"/><path class="cls-2" d="M775.12,171.94v5.67c0,2.22,1.4,4.12,4.22,5.71s7.33,2.39,13.55,2.39h12.77c1.7,0,2.79.46,3.27,1.39a9.35,9.35,0,0,1,.72,4.16,9.71,9.71,0,0,1-.72,4.22c-.48,1-1.57,1.45-3.27,1.45H792.44q-31.43,0-31.43-19.32v-24.1q0-19.32,31.43-19.32h25.65q16.67,0,24,4.77t7.39,14.55v12.77c0,2.15-.41,3.63-1.22,4.44s-2.63,1.22-5.44,1.22Zm0-11h60.3v-7.44q0-3.88-4.17-6t-13.6-2.11H792.89q-9.33,0-13.55,2.33c-2.82,1.56-4.22,3.48-4.22,5.78Z"/><path class="cls-2" d="M932.47,121.19c0-2.14.59-3.55,1.78-4.22a11.22,11.22,0,0,1,5.33-1,10.87,10.87,0,0,1,5.27,1c1.15.67,1.72,2.08,1.72,4.22v56.42q0,19.32-31.42,19.32H888.49q-31.43,0-31.42-19.32v-24.1q0-19.32,31.42-19.32h44ZM888.94,145.4q-9.33,0-13.55,2.33c-2.81,1.56-4.22,3.48-4.22,5.78v24.1q0,3.33,4.22,5.71t13.55,2.39H914.7q9.33,0,13.55-2.39t4.22-5.71V145.4Z"/><path class="cls-2" d="M1005.1,116.09a12.17,12.17,0,0,1,5.27,1,8.84,8.84,0,0,1,3.39,2.89L1062.17,189a4.7,4.7,0,0,1,.78,2.56,4.22,4.22,0,0,1-.72,2.33,6.54,6.54,0,0,1-1.89,1.89,10.09,10.09,0,0,1-2.61,1.22,10,10,0,0,1-2.89.44,7.13,7.13,0,0,1-2.77-.5,4.8,4.8,0,0,1-2.11-1.72l-13.11-19.1H975.11l-12.32,19.1a4.19,4.19,0,0,1-2.06,1.72,7.26,7.26,0,0,1-2.72.5,9.68,9.68,0,0,1-2.78-.44,8.88,8.88,0,0,1-2.6-1.28,7.38,7.38,0,0,1-1.89-1.89,4.12,4.12,0,0,1-.72-2.38,4.92,4.92,0,0,1,.77-2.45L996.32,120a8,8,0,0,1,3.33-2.89A12.89,12.89,0,0,1,1005.1,116.09Zm-22.33,48.08h45.87l-23.54-34.54Z"/><path class="cls-2" d="M1084.27,192.15q0,3.22-1.89,4.22a12.14,12.14,0,0,1-5.55,1,11.82,11.82,0,0,1-5.44-1q-1.89-1-1.89-4.22v-71q0-3.21,1.89-4.22a12,12,0,0,1,5.44-1,12.27,12.27,0,0,1,5.55,1q1.89,1,1.89,4.22Z"/><circle class="cls-3" cx="88.43" cy="55.1" r="10.18"/><circle class="cls-3" cx="147.14" cy="74.44" r="13.57"/><circle class="cls-3" cx="207.89" cy="57.81" r="12.22"/><circle class="cls-3" cx="104.72" cy="116.18" r="8.14"/><circle class="cls-4" cx="124.74" cy="136.88" r="8.14"/><circle class="cls-3" cx="290.69" cy="144.68" r="12.22"/><circle class="cls-3" cx="141.37" cy="196.27" r="8.14"/><circle class="cls-3" cx="178.02" cy="216.63" r="10.86"/><circle class="cls-5" cx="124.74" cy="136.88" r="5.43"/><circle class="cls-2" cx="226.75" cy="110.59" r="23.24"/><circle class="cls-3" cx="269.65" cy="81.56" r="9.5"/><circle class="cls-6" cx="186.85" cy="160.29" r="9.5"/><circle class="cls-6" cx="226.75" cy="110.59" r="15.3"/><circle class="cls-7" cx="226.75" cy="110.59" r="9.26"/><circle class="cls-8" cx="147" cy="74.73" r="6.15"/><circle class="cls-7" cx="226.75" cy="110.59" r="7.65"/><circle class="cls-9" cx="147" cy="74.73" r="4.11"/><circle class="cls-2" cx="89.1" cy="177.96" r="23.77"/><circle class="cls-10" cx="89.1" cy="177.96" r="15.65"/><circle class="cls-11" cx="89.1" cy="177.96" r="9.47"/><circle class="cls-11" cx="89.1" cy="177.96" r="7.82"/><circle class="cls-2" cx="234.21" cy="187.88" r="14.69"/><circle class="cls-12" cx="234.21" cy="187.88" r="9.67"/><circle class="cls-13" cx="234.21" cy="187.88" r="7.35"/><circle class="cls-14" cx="234.21" cy="187.88" r="5.85"/><rect class="cls-2" x="133.23" y="127.04" width="81.44" transform="translate(-18.18 29.65) rotate(-9.26)"/><rect class="cls-2" x="159.82" y="65.54" width="36.67" transform="translate(-10.66 45.95) rotate(-14.28)"/><rect class="cls-2" x="257.08" y="112" width="44.35" height="0.19" transform="translate(304.7 -187.74) rotate(72.98)"/><rect class="cls-2" x="238.06" y="94.04" width="25.29" height="0.62" transform="matrix(-0.83, 0.55, -0.55, -0.83, 511.89, 34.89)"/><rect class="cls-15" x="96.79" y="64.54" width="38.08" height="0.4" transform="translate(26.14 -33.06) rotate(18.28)"/><rect class="cls-16" x="54.34" y="70.62" width="28.53" transform="translate(167.05 72.05) rotate(135)"/><rect class="cls-2" x="108.57" y="125.94" width="10.67" transform="translate(122.41 -43.66) rotate(45)"/><rect class="cls-2" x="66.66" y="99.16" width="0.12" height="69.02" transform="translate(-46.7 36.43) rotate(-22.87)"/><rect class="cls-2" x="148.86" y="192.59" width="76.23" transform="translate(-18.1 19.4) rotate(-5.66)"/><rect class="cls-2" x="110.38" y="166.95" width="45.24" height="0.03" transform="translate(259.03 -5.31) rotate(74.73)"/><rect class="cls-2" x="196.32" y="152.44" width="83.09" height="0.15" transform="translate(-21.1 39.48) rotate(-9.09)"/><rect class="cls-2" x="186.17" y="202.41" width="42.77" height="0.28" transform="translate(-66.56 107.88) rotate(-25.25)"/><rect class="cls-2" x="215.33" y="69.34" width="0.27" height="27.05" transform="translate(-14.82 66.69) rotate(-17.02)"/></svg>